#!OML:ASF E:/inclinewalkrobotboard/Project1/Captureday1/Session1/subject1.ASF
:FULLY-SPECIFIED
:DEGREES
263
root 0 0 0 -2.234653488953373 -4.5564514934355 -5.371009373547093
lowerback 10.463570440132026 1.718690148693859 4.216359227862208
upperback 0.5318648417632881 2.8648247602436325 1.6474359431636647
thorax -5.187770817251818 1.3354852146608482 -1.0419591069462144
lowerneck -16.819931792896273 -3.165894730222914 -1.7237320880917526
upperneck 19.140377796081612 -4.07012666989375 0.6895771945093427
head 8.835082442592428 -1.9581174787549085 0.002879153452618244
rclavicle -4.2509662252361866E-16 -3.2967383144289374E-16
rhumerus -29.57360221107853 -18.482524839317968 -78.15372128699624
rradius 26.22330177593563
rwrist 4.286670733831486
rhand -17.602039226614572 22.846725690178403
rfingers 7.125020000000029
rthumb 8.644653447601424 -6.977478535794962
lclavicle -6.380970711455929E-16 -1.8790008842710142E-16
lhumerus -30.339678255758017 -1.4511627558073847 82.28441799836848
lradius 32.22446964703483
lwrist 5.6593595231466205
lhand -25.655928048621803 23.86345958939711
lfingers 7.1240203788266445
lthumb 0.8677475123501726 53.50703857506968
rfemur -15.934149569983528 2.5581802118192147 24.434363634680814
rtibia 53.56333278737753
rfoot -1.2976518956657266 -4.89770876115665
rtoes 7.932299007083414
lfemur 0.26251055577850835 -3.5842554945886325 -24.794568172304253
ltibia 18.118619295756258
lfoot -16.039751085297357 2.0342905203859107
ltoes -3.101669745000886
264
root 0 0 0 -2.2510831490319143 -4.326649571716784 -5.192671450111267
lowerback 10.467806777786528 1.6259027974700082 4.0171148127358585
upperback 0.5200450650650978 2.719982771682446 1.6623089343119024
thorax -5.2031809136892555 1.269527755122676 -0.8950442600988525
lowerneck -16.888346891931196 -3.1461447513405276 -1.7118473682888524
upperneck 19.204247249848564 -4.033011330740068 0.6370441982843786
head 8.863719375541763 -1.9432501060050922 -0.013781461274479767
rclavicle -4.0906593211221836E-16 -3.357624579775549E-16
rhumerus -29.80697954049735 -18.703302045688687 -78.198983106006
rradius 26.008021095476323
rwrist 4.241800606809189
rhand -17.564099246540817 23.015404373314308
rfingers 7.125020000000031
rthumb 8.679774930952082 -6.811976075059949
lclavicle -6.353195638580721E-16 -1.91971797151784E-16
lhumerus -30.424301789641447 -1.3660172911674877 82.29281133866735
lradius 32.05000545992791
lwrist 5.642708572085342
lhand -25.705789896845925 23.83249685082225
lfingers 7.124042844868268
lthumb 0.8190151694998633 53.49252902527165
rfemur -18.12953716117768 1.9846889157596195 23.236600899103543
rtibia 56.722456288695625
rfoot 0.24236617485424183 -4.9753483682948385
rtoes 8.316683077130929
lfemur 1.4255807971377994 -3.511429953005215 -25.317388555268643
ltibia 18.337927994353443
lfoot -16.002208470981415 1.5168434103303614
ltoes -3.331744119444352
265
root 0 0 0 -2.2721753196903394 -4.013984433627032 -4.948247829868712
lowerback 10.472427138683058 1.4981828583675987 3.744502123812806
upperback 0.5046094586627832 2.5206602047504227 1.68265948136583
thorax -5.222907643264751 1.1786440410699888 -0.6933431686902818
lowerneck -16.977989272692778 -3.1189095196625303 -1.6971913843177537
upperneck 19.28885279859762 -3.982809436698084 0.5677885456375975
head 8.902108801007042 -1.9227744412096786 -0.03546633942257138
rclavicle -3.9402890178143845E-16 -3.4257495578830146E-16
rhumerus -30.041427297492124 -18.922336247342095 -78.24563522050411
rradius 25.792208991980708
rwrist 4.196272555282655
rhand -17.525385268694635 23.184539501891877
rfingers 7.125020000000034
rthumb 8.71532278927877 -6.646156970065881
lclavicle -6.335144471111784E-16 -1.9491953584967716E-16
lhumerus -30.489855126374184 -1.3010126705274132 82.29969513280196
lradius 31.915356073078875
lwrist 5.6307831064156515
lhand -25.74359398353043 23.80967655075676
lfingers 7.124060869424762
lthumb 0.7819069459356722 53.48173591698976
rfemur -19.372777584654497 1.8068379129436298 22.510586272689444
rtibia 57.79919468225238
rfoot 0.7711860479083885 -5.15576662199497
rtoes 8.228746991907212
lfemur 2.376178949590864 -3.4476439930151965 -25.734889227909132
ltibia 18.560361823703012
lfoot -15.95974867587601 1.0824601511414569
ltoes -3.542713808113849
266
root 0 0 0 -2.298365072985387 -3.629080987853065 -4.63794039994698
lowerback 10.476535497205656 1.3368411583901612 3.3988917219284547
upperback 0.48743261482745304 2.268609925886844 1.706749493768167
thorax -5.244943936018267 1.063633247763471 -0.4391965294337352
lowerneck -17.08020541020486 -3.083885404667744 -1.6827947916116823
upperneck 19.386841294990052 -3.919604111030869 0.4865115078373652
head 8.947067443277197 -1.8967597701804797 -0.06002685306809141
rclavicle -3.810204283825519E-16 -3.4949510248703207E-16
rhumerus -30.239948156301434 -19.10596633133607 -78.28533580406757
rradius 25.61058782689191
rwrist 4.157661865275311
rhand -17.492433373669087 23.326992863223825
rfingers 7.125020000000036
rthumb 8.745480247238783 -6.506584598832607
lclavicle -6.326214580079605E-16 -1.9751658884074822E-16
lhumerus -30.529426458505647 -1.2615210077630188 82.30388098382187
lradius 31.833528129038875
lwrist 5.624146126556421
lhand -25.76596760239865 23.79648860133927
lfingers 7.124076298339464
lthumb 0.7601376224409808 53.4753256079999
rfemur -20.02896680864027 1.8162835664806654 22.102293913443024
rtibia 57.82153907398241
rfoot 0.8038764023051161 -5.348792762214745
rtoes 7.960572870548668
lfemur 3.079379960762294 -3.4025120645129103 -26.037258583355964
ltibia 18.71753158431081
lfoot -15.949445392207547 0.7811430365007572
ltoes -3.7104164446395265
267
root 0 0 0 -2.331529401106061 -3.1723333476401088 -4.245724158405294
lowerback 10.47947278812836 1.1363059754132208 2.9629277755340135
upperback 0.47063604668088965 1.9543699192700263 1.7327596832458623
thorax -5.267116036720822 0.9201632567483253 -0.12358394658861918
lowerneck -17.185957154203294 -3.039586745433023 -1.6731343846715019
upperneck 19.491846901898306 -3.8413861986403424 0.3975984591940893
head 8.995593357330176 -1.8644722526841588 -0.08489187716827251
rclavicle -3.71364402740329E-16 -3.5549397323208664E-16
rhumerus -30.372278193947487 -19.227122405305252 -78.31155210462681
rradius 25.491103353228155
rwrist 4.132270113676012
rhand -17.470377904598145 23.421004610683404
rfingers 7.125020000000037
rthumb 8.765526273524895 -6.4145581957213835
lclavicle -6.335559700481315E-16 -2.007201512823296E-16
lhumerus -30.53785628177487 -1.2537590647514136 82.30503234443492
lradius 31.81608701299573
lwrist 5.623335202125759
lhand -25.76946297860727 23.794273384492605
lfingers 7.124081354480136
lthumb 0.7570442262719421 53.473696496369314
rfemur -20.44155447099203 1.8630348977383546 21.84103493194656
rtibia 57.603144090110135
rfoot 0.7256592576097862 -5.510045315816644
rtoes 7.709026799846236
lfemur 3.5339340578609164 -3.3677066933846964 -26.22101892608673
ltibia 18.868735560902003
lfoot -15.937789557970234 0.5834704694407948
ltoes -3.83822909373544
268
root 0 0 0 -2.3749253136526653 -2.6287190470260953 -3.7345479629176035
lowerback 10.48039645985036 0.8820180433748847 2.3961783971643547
upperback 0.45571475023335317 1.553848050854034 1.7593009001628332
thorax -5.28760470356823 0.7371347313441339 0.27794974414702744
lowerneck -17.289523028308825 -2.983349658182708 -1.6734440509113346
upperneck 19.600969563726323 -3.744081052600168 0.30407208372689354
head 9.045952739709033 -1.8243616686242943 -0.10753690554719375
rclavicle -3.655678115858198E-16 -3.5987906281730265E-16
rhumerus -30.42952941749666 -19.277935999528886 -78.32247062443206
rradius 25.441846643260888
rwrist 4.121971838724601
rhand -17.460668844968218 23.460333657921414
rfingers 7.125020000000037
rthumb 8.774093686021367 -6.3761775298148144
lclavicle -6.367585610587182E-16 -2.0441390542243431E-16
lhumerus -30.51035202161051 -1.2837277570654742 82.30299312501606
lradius 31.873850988632704
lwrist 5.62934383359645
lhand -25.750906149951284 23.80484585525686
lfingers 7.124069109242163
lthumb 0.7754415390946541 53.477611359476626
rfemur -20.748467174778792 1.908131860797801 21.64735914207303
rtibia 57.38234513644064
rfoot 0.6422802918606259 -5.640774602155078
rtoes 7.508964505292842
lfemur 3.776382395082541 -3.3389296877412624 -26.303555665580724
ltibia 19.03431760111935
lfoot -15.912040166432948 0.4625857440905854
ltoes -3.931206314825361
269
root 0 0 0 -2.4331566654000985 -1.9921113698099173 -3.049310386820131
lowerback 10.47717774884598 0.5554944890149746 1.638823606965723
upperback 0.4455638643189497 1.0353745093136404 1.7822098706360947
thorax -5.301968885333173 0.4997829385349971 0.798757916945767
lowerneck -17.377248314581138 -2.9130355887950823 -1.694193133210816
upperneck 19.70545005747854 -3.6248335960012708 0.2168081450407895
head 9.092654396610442 -1.775632538698747 -0.12176563856311251
rclavicle -3.637169838927052E-16 -3.6242949625800866E-16
rhumerus -30.413129511729224 -19.259549993757965 -78.31844234186669
rradius 25.461421138081267
rwrist 4.126488401042558
rhand -17.46303765927778 23.44602726917584
rfingers 7.125020000000037
rthumb 8.771410893710936 -6.390383064182618
lclavicle -6.425114923949513E-16 -2.0811692705570661E-16
lhumerus -30.438644302570474 -1.3610484304337618 82.29740408439771
lradius 32.024778983831716
lwrist 5.644131278886832
lhand -25.705071729745548 23.83159154326322
lfingers 7.124033510287876
lthumb 0.8200392228224889 53.488624350578135
rfemur -20.950420368037637 1.980737568620981 21.50894982968027
rtibia 57.021218583389974
rfoot 0.4865322889086112 -5.767365729559122
rtoes 7.295094017559575
lfemur 3.869865042139045 -3.317980422117379 -26.317172301712276
ltibia 19.18263000897986
lfoot -15.892654207021685 0.410747037786205
ltoes -3.994219473163067
270
root 0 0 0 -2.510053722259471 -1.3139283556720986 -2.1423905513446075
lowerback 10.46569887162154 0.15040261607917216 0.64062882372325
upperback 0.4474178680370957 0.3840830807348016 1.7903125319610913
thorax -5.2992947829713355 0.20071940199675362 1.457057867793574
lowerneck -17.41099568068285 -2.8313053447759415 -1.755760659500747
upperneck 19.776379412432224 -3.4897580983188736 0.16794340032076782
head 9.119055665378468 -1.7215721080795552 -0.1129362422562501
rclavicle -3.66156818267298E-16 -3.6257574781431753E-16
rhumerus -30.32229574869497 -19.17136619872062 -78.29909710843418
rradius 25.5499098637157
rwrist 4.146057794795276
rhand -17.477646988920732 23.37757073848958
rfingers 7.1250200000000365
rthumb 8.757346565554503 -6.457628218330726
lclavicle -6.508741148303915E-16 -2.1077719244216028E-16
lhumerus -30.30777937030581 -1.502978862398571 82.28762780890659
lradius 32.30110066073685
lwrist 5.670946314410692
lhand -25.622499661354432 23.880467088537547
lfingers 7.12396600466178
lthumb 0.8994079306918952 53.509751018887506
rfemur -20.990723881161212 2.140955805324407 21.443580718538946
rtibia 56.201363928602944
rfoot 0.11397246277180706 -5.928664645096946
rtoes 6.95304281780787
lfemur 3.9003539950011845 -3.30787861714185 -26.302941698964776
ltibia 19.26936708281825
lfoot -15.914468392992603 0.42383749661167336
ltoes -4.040070734369645
